<svg width="1000" height="1000" viewBox="0 0 1000 1000" version="1.1" xmlns="http://www.w3.org/2000/svg" xmlns:xlink="http://www.w3.org/1999/xlink">
<g id="Canvas" fill="none">
<g id="Frame" clip-path="url(#clip0)">
<rect width="1000" height="1000" fill="white"/>
<g id="Pen">
<g id="Ellipse">
<circle cx="75" cy="75" r="75" transform="translate(832 425)" fill="#4F4F4F"/>
<circle cx="75" cy="75" r="70" stroke-width="10" transform="translate(832 425)" stroke="#333333"/>
</g>
<g id="Group">
<g id="Rectangle">
<rect width="37.5" height="225" transform="translate(888.25 387.5)" fill="#333333"/>
</g>
<g id="Rectangle 2">
<rect width="18.75" height="18.75" transform="translate(897.25 612.5)" fill="#333333"/>
</g>
<g id="Ellipse 2">
<circle cx="9.375" cy="9.375" r="9.375" transform="translate(897.25 623.75)" fill="#333333"/>
</g>
<g id="Vector">
<path d="M 18.75 0L 0 37.5L 37.5 37.5L 18.75 0Z" transform="translate(888.25 350)" fill="#333333"/>
</g>
</g>
</g>
<g id="Tablet">
<g id="Tablet BG">
<rect width="800" height="450" rx="25" transform="translate(18 275)" fill="#333333"/>
</g>
<g id="Touch Space">
<rect width="645" height="400" transform="translate(148 305)" fill="#262626"/>
</g>
<g id="Button">
<rect width="75" height="25" rx="5" transform="translate(48 312)" fill="#4F4F4F"/>
</g>
<g id="Button_2">
<rect width="75" height="25" rx="5" transform="translate(48 672)" fill="#4F4F4F"/>
</g>
<g id="Group 5">
<g id="Ellipse_2">
<circle cx="37.5" cy="37.5" r="37.5" transform="translate(48 462)" fill="#4F4F4F"/>
</g>
<g id="Ellipse_3">
<circle cx="25" cy="25" r="25" transform="translate(61 475)" fill="#333333"/>
</g>
</g>
<g id="Button Rect">
<g id="Rectangle 2.15">
<rect width="75" height="25" rx="5" transform="translate(48 627)" fill="#4F4F4F"/>
</g>
<g id="Rectangle 2.21">
<rect width="15" height="5" rx="2.5" transform="translate(78 638)" fill="#333333"/>
</g>
</g>
<g id="Button Rect_2">
<g id="Rectangle 2.15_2">
<rect width="75" height="25" rx="5" transform="translate(48 357)" fill="#4F4F4F"/>
</g>
<g id="Rectangle 2.21_2">
<rect width="15" height="5" rx="2.5" transform="translate(78 368)" fill="#333333"/>
</g>
</g>
<g id="Button Circle">
<g id="Rectangle 2.12">
<rect width="75" height="25" rx="5" transform="translate(48 582)" fill="#4F4F4F"/>
</g>
<g id="Rectangle 2.22">
<rect width="5" height="5" rx="2.5" transform="translate(83 592)" fill="#333333"/>
</g>
</g>
<g id="Button Circle_2">
<g id="Rectangle 2.12_2">
<rect width="75" height="25" rx="5" transform="translate(48 402)" fill="#4F4F4F"/>
</g>
<g id="Rectangle 2.22_2">
<rect width="5" height="5" rx="2.5" transform="translate(83 412)" fill="#333333"/>
</g>
</g>
</g>
</g>
</g>
<defs>

<clipPath id="clip0">
<rect width="1000" height="1000" fill="white"/>
</clipPath>

</defs>
</svg>

