<svg width="1440" height="1024" viewBox="0 0 1440 1024" version="1.1" xmlns="http://www.w3.org/2000/svg" xmlns:xlink="http://www.w3.org/1999/xlink">
<g id="Canvas" fill="none">
<g id="Desktop" clip-path="url(#clip0)">
<g id="Computer Base">
<g id="Vector 2">
<path d="M 278.199 0L 52.5869 0C 51.5544 0 50.5471 0.31969 49.7035 0.915161L 12.8702 26.9152C 8.88463 29.7285 10.8751 36 15.7536 36L 309.616 36C 314.301 36 316.413 30.135 312.804 27.148L 281.387 1.14803C 280.491 0.406001 279.363 0 278.199 0Z" transform="translate(555 896)" fill="#B3B3B3"/>
</g>
<g id="Vector">
<path d="M 229 103.5L 0 103.5L 12.5 0L 215.5 0L 229 103.5Z" transform="translate(606 793)" fill="#999999"/>
</g>
<g id="Rectangle">
<rect width="1020" height="702" rx="25" transform="translate(210 91)" fill="black"/>
</g>
</g>
<g id="Rectangle 2">
<path d="M 0 0L 1020 0L 1020 70C 1020 83.8071 1008.81 95 995 95L 25 95C 11.1929 95 0 83.8071 0 70L 0 0Z" transform="translate(210 698)" fill="#BFBFBF"/>
</g>
<g id="Rectangle_2">
<rect width="940" height="526" transform="translate(250 132)" fill="#2D9CDB"/>
<rect width="940" height="526" transform="translate(250 132)" fill="url(#paint0_linear)"/>
</g>
<g id="Logo">
<path d="M 0 50C 0 22.3858 22.3858 0 50 0L 55 0L 55 5C 55 32.6142 32.6142 55 5 55L 0 55L 0 50Z" transform="translate(693 718)" fill="#F2994A"/>
</g>
<g id="We Are Modern Freelance">
<path d="M 287.003 199C 285.915 199 285.051 198.712 284.411 198.136C 283.771 197.496 283.387 196.728 283.259 195.832L 272.795 134.488C 272.731 134.296 272.699 134.072 272.699 133.816C 272.699 133.304 272.891 132.856 273.275 132.472C 273.723 132.024 274.203 131.8 274.715 131.8L 286.619 131.8C 288.411 131.8 289.403 132.504 289.595 133.912L 295.835 171.352L 302.747 149.272C 303.451 147.544 304.507 146.68 305.915 146.68L 312.827 146.68C 314.427 146.68 315.483 147.544 315.995 149.272L 322.907 171.352L 329.147 133.912C 329.339 132.504 330.331 131.8 332.123 131.8L 344.027 131.8C 344.603 131.8 345.083 132.024 345.467 132.472C 345.915 132.856 346.139 133.304 346.139 133.816L 346.043 134.488L 335.579 195.832C 335.451 196.728 335.035 197.496 334.331 198.136C 333.691 198.712 332.859 199 331.835 199L 322.715 199C 321.691 199 320.891 198.744 320.315 198.232C 319.739 197.72 319.323 197.144 319.067 196.504L 309.371 169.048L 299.675 196.504C 299.099 198.168 297.915 199 296.123 199L 287.003 199ZM 376.329 199.96C 368.649 199.96 362.601 197.88 358.185 193.72C 353.769 189.56 351.465 183.512 351.273 175.576L 351.273 172.216C 351.529 164.664 353.865 158.776 358.281 154.552C 362.761 150.264 368.745 148.12 376.233 148.12C 381.673 148.12 386.249 149.24 389.961 151.48C 393.737 153.656 396.553 156.664 398.409 160.504C 400.329 164.344 401.289 168.76 401.289 173.752L 401.289 176.056C 401.289 176.696 401.065 177.272 400.617 177.784C 400.169 178.232 399.593 178.456 398.889 178.456L 368.169 178.456L 368.169 179.128C 368.297 182.136 369.033 184.568 370.377 186.424C 371.721 188.28 373.673 189.208 376.233 189.208C 377.833 189.208 379.145 188.888 380.169 188.248C 381.193 187.544 382.121 186.712 382.953 185.752C 383.529 185.048 383.977 184.632 384.297 184.504C 384.681 184.312 385.257 184.216 386.025 184.216L 397.929 184.216C 398.505 184.216 398.985 184.408 399.369 184.792C 399.817 185.112 400.041 185.56 400.041 186.136C 400.041 187.8 399.081 189.72 397.161 191.896C 395.305 194.072 392.585 195.96 389.001 197.56C 385.417 199.16 381.193 199.96 376.329 199.96ZM 384.393 168.952L 384.393 168.76C 384.393 165.624 383.657 163.16 382.185 161.368C 380.777 159.512 378.793 158.584 376.233 158.584C 373.737 158.584 371.753 159.512 370.281 161.368C 368.873 163.16 368.169 165.624 368.169 168.76L 368.169 168.952L 384.393 168.952ZM 425.505 199C 424.993 199 424.513 198.808 424.065 198.424C 423.681 197.976 423.489 197.496 423.489 196.984C 423.489 196.6 423.521 196.312 423.585 196.12L 446.145 134.488C 446.337 133.72 446.753 133.08 447.393 132.568C 448.033 132.056 448.865 131.8 449.889 131.8L 464.097 131.8C 465.121 131.8 465.953 132.056 466.593 132.568C 467.233 133.08 467.649 133.72 467.841 134.488L 490.305 196.12L 490.497 196.984C 490.497 197.496 490.273 197.976 489.825 198.424C 489.441 198.808 488.961 199 488.385 199L 476.577 199C 475.041 199 474.017 198.328 473.505 196.984L 469.761 187.192L 444.129 187.192L 440.481 196.984C 439.969 198.328 438.913 199 437.313 199L 425.505 199ZM 465.921 173.368L 456.993 148.024L 448.065 173.368L 465.921 173.368ZM 499.408 199C 498.704 199 498.128 198.776 497.68 198.328C 497.232 197.88 497.008 197.304 497.008 196.6L 497.008 151.48C 497.008 150.776 497.232 150.2 497.68 149.752C 498.128 149.304 498.704 149.08 499.408 149.08L 510.448 149.08C 511.152 149.08 511.728 149.336 512.176 149.848C 512.688 150.296 512.944 150.84 512.944 151.48L 512.944 155.32C 516.464 151.16 521.2 149.08 527.152 149.08L 531.376 149.08C 532.08 149.08 532.656 149.304 533.104 149.752C 533.552 150.2 533.776 150.776 533.776 151.48L 533.776 161.368C 533.776 162.008 533.552 162.584 533.104 163.096C 532.656 163.544 532.08 163.768 531.376 163.768L 522.064 163.768C 519.44 163.768 517.392 164.504 515.92 165.976C 514.512 167.384 513.808 169.4 513.808 172.024L 513.808 196.6C 513.808 197.304 513.552 197.88 513.04 198.328C 512.592 198.776 512.016 199 511.312 199L 499.408 199ZM 563.173 199.96C 555.493 199.96 549.445 197.88 545.029 193.72C 540.613 189.56 538.309 183.512 538.117 175.576L 538.117 172.216C 538.373 164.664 540.709 158.776 545.125 154.552C 549.605 150.264 555.589 148.12 563.077 148.12C 568.517 148.12 573.093 149.24 576.805 151.48C 580.581 153.656 583.397 156.664 585.253 160.504C 587.173 164.344 588.133 168.76 588.133 173.752L 588.133 176.056C 588.133 176.696 587.909 177.272 587.461 177.784C 587.013 178.232 586.437 178.456 585.733 178.456L 555.013 178.456L 555.013 179.128C 555.141 182.136 555.877 184.568 557.221 186.424C 558.565 188.28 560.517 189.208 563.077 189.208C 564.677 189.208 565.989 188.888 567.013 188.248C 568.037 187.544 568.965 186.712 569.797 185.752C 570.373 185.048 570.821 184.632 571.141 184.504C 571.525 184.312 572.101 184.216 572.869 184.216L 584.773 184.216C 585.349 184.216 585.829 184.408 586.213 184.792C 586.661 185.112 586.885 185.56 586.885 186.136C 586.885 187.8 585.925 189.72 584.005 191.896C 582.149 194.072 579.429 195.96 575.845 197.56C 572.261 199.16 568.037 199.96 563.173 199.96ZM 571.237 168.952L 571.237 168.76C 571.237 165.624 570.501 163.16 569.029 161.368C 567.621 159.512 565.637 158.584 563.077 158.584C 560.581 158.584 558.597 159.512 557.125 161.368C 555.717 163.16 555.013 165.624 555.013 168.76L 555.013 168.952L 571.237 168.952ZM 11.37 313C 10.73 313 10.154 312.776 9.642 312.328C 9.194 311.816 8.97 311.24 8.97 310.6L 8.97 248.2C 8.97 247.496 9.194 246.92 9.642 246.472C 10.154 246.024 10.73 245.8 11.37 245.8L 21.738 245.8C 23.274 245.8 24.394 246.504 25.098 247.912L 41.994 278.152L 58.89 247.912C 59.594 246.504 60.714 245.8 62.25 245.8L 72.522 245.8C 73.226 245.8 73.802 246.024 74.25 246.472C 74.762 246.92 75.018 247.496 75.018 248.2L 75.018 310.6C 75.018 311.304 74.762 311.88 74.25 312.328C 73.802 312.776 73.226 313 72.522 313L 61.098 313C 60.394 313 59.786 312.776 59.274 312.328C 58.826 311.88 58.602 311.304 58.602 310.6L 58.602 274.6L 47.85 294.664C 47.018 296.136 45.898 296.872 44.49 296.872L 39.498 296.872C 38.666 296.872 37.994 296.68 37.482 296.296C 36.97 295.912 36.522 295.368 36.138 294.664L 25.29 274.6L 25.29 310.6C 25.29 311.24 25.066 311.816 24.618 312.328C 24.17 312.776 23.594 313 22.89 313L 11.37 313ZM 111.03 313.96C 103.094 313.96 96.982 312.072 92.694 308.296C 88.406 304.52 86.07 299.208 85.686 292.36C 85.622 291.528 85.59 290.088 85.59 288.04C 85.59 285.992 85.622 284.552 85.686 283.72C 86.07 276.936 88.47 271.656 92.886 267.88C 97.302 264.04 103.35 262.12 111.03 262.12C 118.774 262.12 124.854 264.04 129.27 267.88C 133.686 271.656 136.086 276.936 136.47 283.72C 136.534 284.552 136.566 285.992 136.566 288.04C 136.566 290.088 136.534 291.528 136.47 292.36C 136.086 299.208 133.75 304.52 129.462 308.296C 125.174 312.072 119.03 313.96 111.03 313.96ZM 111.03 302.248C 113.846 302.248 115.926 301.416 117.27 299.752C 118.614 298.024 119.382 295.4 119.574 291.88C 119.638 291.24 119.67 289.96 119.67 288.04C 119.67 286.12 119.638 284.84 119.574 284.2C 119.382 280.744 118.582 278.152 117.174 276.424C 115.83 274.696 113.782 273.832 111.03 273.832C 105.718 273.832 102.902 277.288 102.582 284.2L 102.486 288.04L 102.582 291.88C 102.71 295.4 103.446 298.024 104.79 299.752C 106.198 301.416 108.278 302.248 111.03 302.248ZM 164.725 313.96C 158.453 313.96 153.558 312.008 150.038 308.104C 146.582 304.136 144.694 298.568 144.374 291.4L 144.277 288.04L 144.374 284.584C 144.63 277.672 146.518 272.2 150.038 268.168C 153.622 264.136 158.517 262.12 164.725 262.12C 170.55 262.12 175.254 264.008 178.838 267.784L 178.838 247.24C 178.838 246.536 179.062 245.96 179.51 245.512C 179.958 245.064 180.534 244.84 181.238 244.84L 192.949 244.84C 193.654 244.84 194.23 245.064 194.677 245.512C 195.126 245.96 195.35 246.536 195.35 247.24L 195.35 310.6C 195.35 311.24 195.126 311.816 194.677 312.328C 194.23 312.776 193.654 313 192.949 313L 182.101 313C 181.461 313 180.885 312.776 180.374 312.328C 179.926 311.816 179.702 311.24 179.702 310.6L 179.702 307.528C 176.182 311.816 171.189 313.96 164.725 313.96ZM 170.005 301.096C 172.885 301.096 175.029 300.2 176.438 298.408C 177.846 296.552 178.646 294.184 178.838 291.304C 178.901 290.472 178.933 289.256 178.933 287.656C 178.933 286.12 178.901 284.936 178.838 284.104C 178.71 281.48 177.91 279.304 176.438 277.576C 174.965 275.848 172.821 274.984 170.005 274.984C 166.998 274.984 164.822 275.88 163.477 277.672C 162.197 279.464 161.461 281.928 161.269 285.064C 161.206 285.704 161.174 286.696 161.174 288.04C 161.174 289.384 161.206 290.376 161.269 291.016C 161.461 294.152 162.197 296.616 163.477 298.408C 164.822 300.2 166.998 301.096 170.005 301.096ZM 229.704 313.96C 222.024 313.96 215.976 311.88 211.56 307.72C 207.144 303.56 204.84 297.512 204.648 289.576L 204.648 286.216C 204.904 278.664 207.24 272.776 211.656 268.552C 216.136 264.264 222.12 262.12 229.608 262.12C 235.048 262.12 239.624 263.24 243.336 265.48C 247.112 267.656 249.928 270.664 251.784 274.504C 253.704 278.344 254.664 282.76 254.664 287.752L 254.664 290.056C 254.664 290.696 254.44 291.272 253.992 291.784C 253.544 292.232 252.968 292.456 252.264 292.456L 221.544 292.456L 221.544 293.128C 221.672 296.136 222.408 298.568 223.752 300.424C 225.096 302.28 227.048 303.208 229.608 303.208C 231.208 303.208 232.52 302.888 233.544 302.248C 234.568 301.544 235.496 300.712 236.328 299.752C 236.904 299.048 237.352 298.632 237.672 298.504C 238.056 298.312 238.632 298.216 239.4 298.216L 251.304 298.216C 251.88 298.216 252.36 298.408 252.744 298.792C 253.192 299.112 253.416 299.56 253.416 300.136C 253.416 301.8 252.456 303.72 250.536 305.896C 248.68 308.072 245.96 309.96 242.376 311.56C 238.792 313.16 234.568 313.96 229.704 313.96ZM 237.768 282.952L 237.768 282.76C 237.768 279.624 237.032 277.16 235.56 275.368C 234.152 273.512 232.168 272.584 229.608 272.584C 227.112 272.584 225.128 273.512 223.656 275.368C 222.248 277.16 221.544 279.624 221.544 282.76L 221.544 282.952L 237.768 282.952ZM 266.064 313C 265.36 313 264.784 312.776 264.336 312.328C 263.888 311.88 263.664 311.304 263.664 310.6L 263.664 265.48C 263.664 264.776 263.888 264.2 264.336 263.752C 264.784 263.304 265.36 263.08 266.064 263.08L 277.104 263.08C 277.808 263.08 278.384 263.336 278.832 263.848C 279.344 264.296 279.6 264.84 279.6 265.48L 279.6 269.32C 283.12 265.16 287.856 263.08 293.808 263.08L 298.032 263.08C 298.736 263.08 299.312 263.304 299.76 263.752C 300.208 264.2 300.432 264.776 300.432 265.48L 300.432 275.368C 300.432 276.008 300.208 276.584 299.76 277.096C 299.312 277.544 298.736 277.768 298.032 277.768L 288.72 277.768C 286.096 277.768 284.048 278.504 282.576 279.976C 281.168 281.384 280.464 283.4 280.464 286.024L 280.464 310.6C 280.464 311.304 280.208 311.88 279.696 312.328C 279.248 312.776 278.672 313 277.968 313L 266.064 313ZM 309.658 313C 308.954 313 308.378 312.776 307.93 312.328C 307.482 311.88 307.258 311.304 307.258 310.6L 307.258 265.48C 307.258 264.776 307.482 264.2 307.93 263.752C 308.378 263.304 308.954 263.08 309.658 263.08L 320.698 263.08C 321.402 263.08 321.978 263.304 322.426 263.752C 322.938 264.2 323.194 264.776 323.194 265.48L 323.194 269.128C 324.922 267.016 327.13 265.32 329.818 264.04C 332.57 262.76 335.674 262.12 339.13 262.12C 344.762 262.12 349.338 264.04 352.858 267.88C 356.378 271.656 358.138 276.968 358.138 283.816L 358.138 310.6C 358.138 311.24 357.914 311.816 357.466 312.328C 357.018 312.776 356.442 313 355.738 313L 343.642 313C 343.002 313 342.426 312.776 341.914 312.328C 341.466 311.816 341.242 311.24 341.242 310.6L 341.242 284.392C 341.242 281.384 340.506 279.08 339.034 277.48C 337.562 275.816 335.45 274.984 332.698 274.984C 330.01 274.984 327.898 275.816 326.362 277.48C 324.826 279.08 324.058 281.384 324.058 284.392L 324.058 310.6C 324.058 311.24 323.834 311.816 323.386 312.328C 322.938 312.776 322.362 313 321.658 313L 309.658 313ZM 392.839 313C 392.199 313 391.623 312.776 391.111 312.328C 390.663 311.816 390.439 311.24 390.439 310.6L 390.439 248.2C 390.439 247.496 390.663 246.92 391.111 246.472C 391.623 246.024 392.199 245.8 392.839 245.8L 436.999 245.8C 437.703 245.8 438.279 246.024 438.727 246.472C 439.175 246.92 439.399 247.496 439.399 248.2L 439.399 257.896C 439.399 258.536 439.175 259.112 438.727 259.624C 438.279 260.072 437.703 260.296 436.999 260.296L 407.335 260.296L 407.335 274.408L 435.079 274.408C 435.783 274.408 436.359 274.664 436.807 275.176C 437.255 275.624 437.479 276.2 437.479 276.904L 437.479 286.504C 437.479 287.144 437.255 287.72 436.807 288.232C 436.359 288.68 435.783 288.904 435.079 288.904L 407.335 288.904L 407.335 310.6C 407.335 311.304 407.111 311.88 406.663 312.328C 406.215 312.776 405.639 313 404.935 313L 392.839 313ZM 450.283 313C 449.579 313 449.003 312.776 448.555 312.328C 448.107 311.88 447.883 311.304 447.883 310.6L 447.883 265.48C 447.883 264.776 448.107 264.2 448.555 263.752C 449.003 263.304 449.579 263.08 450.283 263.08L 461.323 263.08C 462.027 263.08 462.603 263.336 463.051 263.848C 463.563 264.296 463.819 264.84 463.819 265.48L 463.819 269.32C 467.339 265.16 472.075 263.08 478.027 263.08L 482.251 263.08C 482.955 263.08 483.531 263.304 483.979 263.752C 484.427 264.2 484.651 264.776 484.651 265.48L 484.651 275.368C 484.651 276.008 484.427 276.584 483.979 277.096C 483.531 277.544 482.955 277.768 482.251 277.768L 472.939 277.768C 470.315 277.768 468.267 278.504 466.795 279.976C 465.387 281.384 464.683 283.4 464.683 286.024L 464.683 310.6C 464.683 311.304 464.427 311.88 463.915 312.328C 463.467 312.776 462.891 313 462.187 313L 450.283 313ZM 514.048 313.96C 506.368 313.96 500.32 311.88 495.904 307.72C 491.488 303.56 489.184 297.512 488.992 289.576L 488.992 286.216C 489.248 278.664 491.584 272.776 496 268.552C 500.48 264.264 506.464 262.12 513.952 262.12C 519.392 262.12 523.968 263.24 527.68 265.48C 531.456 267.656 534.272 270.664 536.128 274.504C 538.048 278.344 539.008 282.76 539.008 287.752L 539.008 290.056C 539.008 290.696 538.784 291.272 538.336 291.784C 537.888 292.232 537.312 292.456 536.608 292.456L 505.888 292.456L 505.888 293.128C 506.016 296.136 506.752 298.568 508.096 300.424C 509.44 302.28 511.392 303.208 513.952 303.208C 515.552 303.208 516.864 302.888 517.888 302.248C 518.912 301.544 519.84 300.712 520.672 299.752C 521.248 299.048 521.696 298.632 522.016 298.504C 522.4 298.312 522.976 298.216 523.744 298.216L 535.648 298.216C 536.224 298.216 536.704 298.408 537.088 298.792C 537.536 299.112 537.76 299.56 537.76 300.136C 537.76 301.8 536.8 303.72 534.88 305.896C 533.024 308.072 530.304 309.96 526.72 311.56C 523.136 313.16 518.912 313.96 514.048 313.96ZM 522.112 282.952L 522.112 282.76C 522.112 279.624 521.376 277.16 519.904 275.368C 518.496 273.512 516.512 272.584 513.952 272.584C 511.456 272.584 509.472 273.512 508 275.368C 506.592 277.16 505.888 279.624 505.888 282.76L 505.888 282.952L 522.112 282.952ZM 571.048 313.96C 563.368 313.96 557.32 311.88 552.904 307.72C 548.488 303.56 546.184 297.512 545.992 289.576L 545.992 286.216C 546.248 278.664 548.584 272.776 553 268.552C 557.48 264.264 563.464 262.12 570.952 262.12C 576.392 262.12 580.968 263.24 584.68 265.48C 588.456 267.656 591.272 270.664 593.128 274.504C 595.048 278.344 596.008 282.76 596.008 287.752L 596.008 290.056C 596.008 290.696 595.784 291.272 595.336 291.784C 594.888 292.232 594.312 292.456 593.608 292.456L 562.888 292.456L 562.888 293.128C 563.016 296.136 563.752 298.568 565.096 300.424C 566.44 302.28 568.392 303.208 570.952 303.208C 572.552 303.208 573.864 302.888 574.888 302.248C 575.912 301.544 576.84 300.712 577.672 299.752C 578.248 299.048 578.696 298.632 579.016 298.504C 579.4 298.312 579.976 298.216 580.744 298.216L 592.648 298.216C 593.224 298.216 593.704 298.408 594.088 298.792C 594.536 299.112 594.76 299.56 594.76 300.136C 594.76 301.8 593.8 303.72 591.88 305.896C 590.024 308.072 587.304 309.96 583.72 311.56C 580.136 313.16 575.912 313.96 571.048 313.96ZM 579.112 282.952L 579.112 282.76C 579.112 279.624 578.376 277.16 576.904 275.368C 575.496 273.512 573.512 272.584 570.952 272.584C 568.456 272.584 566.472 273.512 565 275.368C 563.592 277.16 562.888 279.624 562.888 282.76L 562.888 282.952L 579.112 282.952ZM 607.408 313C 606.768 313 606.192 312.776 605.68 312.328C 605.232 311.816 605.008 311.24 605.008 310.6L 605.008 247.24C 605.008 246.536 605.232 245.96 605.68 245.512C 606.192 245.064 606.768 244.84 607.408 244.84L 618.736 244.84C 619.44 244.84 620.016 245.064 620.464 245.512C 620.912 245.96 621.136 246.536 621.136 247.24L 621.136 310.6C 621.136 311.304 620.912 311.88 620.464 312.328C 620.016 312.776 619.44 313 618.736 313L 607.408 313ZM 647.453 313.96C 644.061 313.96 640.957 313.32 638.141 312.04C 635.389 310.696 633.213 308.904 631.613 306.664C 630.077 304.36 629.309 301.832 629.309 299.08C 629.309 294.664 631.101 291.112 634.685 288.424C 638.332 285.736 643.325 283.88 649.661 282.856L 661.661 281.032L 661.661 279.688C 661.661 277.256 661.149 275.464 660.125 274.312C 659.101 273.16 657.373 272.584 654.941 272.584C 653.469 272.584 652.253 272.84 651.292 273.352C 650.332 273.864 649.34 274.568 648.317 275.464C 647.42 276.232 646.748 276.744 646.3 277C 646.109 277.512 645.757 277.768 645.245 277.768L 634.78 277.768C 634.14 277.768 633.596 277.576 633.148 277.192C 632.764 276.744 632.604 276.232 632.669 275.656C 632.732 273.928 633.564 272.008 635.164 269.896C 636.828 267.784 639.325 265.96 642.653 264.424C 646.044 262.888 650.204 262.12 655.132 262.12C 663.005 262.12 668.829 263.88 672.604 267.4C 676.381 270.856 678.269 275.528 678.269 281.416L 678.269 310.6C 678.269 311.24 678.045 311.816 677.596 312.328C 677.149 312.776 676.573 313 675.868 313L 664.733 313C 664.092 313 663.516 312.776 663.005 312.328C 662.557 311.816 662.333 311.24 662.333 310.6L 662.333 307.24C 660.924 309.224 658.94 310.856 656.38 312.136C 653.884 313.352 650.908 313.96 647.453 313.96ZM 651.964 303.016C 654.908 303.016 657.276 302.056 659.068 300.136C 660.925 298.216 661.853 295.4 661.853 291.688L 661.853 290.344L 653.693 291.784C 647.932 292.808 645.052 294.824 645.052 297.832C 645.052 299.432 645.724 300.712 647.068 301.672C 648.412 302.568 650.044 303.016 651.964 303.016ZM 691.501 313C 690.797 313 690.221 312.776 689.773 312.328C 689.326 311.88 689.102 311.304 689.102 310.6L 689.102 265.48C 689.102 264.776 689.326 264.2 689.773 263.752C 690.221 263.304 690.797 263.08 691.501 263.08L 702.542 263.08C 703.245 263.08 703.821 263.304 704.269 263.752C 704.781 264.2 705.037 264.776 705.037 265.48L 705.037 269.128C 706.766 267.016 708.974 265.32 711.661 264.04C 714.414 262.76 717.518 262.12 720.974 262.12C 726.606 262.12 731.181 264.04 734.701 267.88C 738.221 271.656 739.981 276.968 739.981 283.816L 739.981 310.6C 739.981 311.24 739.757 311.816 739.31 312.328C 738.861 312.776 738.285 313 737.582 313L 725.485 313C 724.845 313 724.269 312.776 723.757 312.328C 723.309 311.816 723.085 311.24 723.085 310.6L 723.085 284.392C 723.085 281.384 722.349 279.08 720.877 277.48C 719.406 275.816 717.294 274.984 714.542 274.984C 711.854 274.984 709.741 275.816 708.205 277.48C 706.669 279.08 705.901 281.384 705.901 284.392L 705.901 310.6C 705.901 311.24 705.677 311.816 705.229 312.328C 704.781 312.776 704.206 313 703.502 313L 691.501 313ZM 773.733 313.96C 766.501 313.96 760.645 312.04 756.165 308.2C 751.685 304.296 749.285 298.888 748.965 291.976L 748.869 288.136L 748.965 284.2C 749.221 277.288 751.589 271.88 756.069 267.976C 760.613 264.072 766.501 262.12 773.733 262.12C 779.173 262.12 783.749 263.112 787.461 265.096C 791.237 267.016 794.021 269.352 795.813 272.104C 797.669 274.792 798.661 277.256 798.789 279.496C 798.853 280.136 798.629 280.712 798.117 281.224C 797.669 281.672 797.093 281.896 796.389 281.896L 784.197 281.896C 783.493 281.896 782.949 281.736 782.565 281.416C 782.181 281.096 781.829 280.616 781.509 279.976C 780.741 277.992 779.749 276.584 778.533 275.752C 777.381 274.92 775.877 274.504 774.021 274.504C 768.773 274.504 766.053 277.896 765.861 284.68L 765.765 288.328L 765.861 291.496C 765.989 294.952 766.725 297.512 768.069 299.176C 769.477 300.776 771.461 301.576 774.021 301.576C 776.005 301.576 777.573 301.16 778.725 300.328C 779.877 299.496 780.805 298.088 781.509 296.104C 781.829 295.464 782.181 294.984 782.565 294.664C 782.949 294.344 783.493 294.184 784.197 294.184L 796.389 294.184C 797.029 294.184 797.573 294.408 798.021 294.856C 798.533 295.24 798.789 295.752 798.789 296.392C 798.789 298.44 797.893 300.84 796.101 303.592C 794.373 306.344 791.621 308.776 787.845 310.888C 784.069 312.936 779.365 313.96 773.733 313.96ZM 830.454 313.96C 822.774 313.96 816.726 311.88 812.31 307.72C 807.894 303.56 805.59 297.512 805.398 289.576L 805.398 286.216C 805.654 278.664 807.99 272.776 812.406 268.552C 816.886 264.264 822.87 262.12 830.358 262.12C 835.798 262.12 840.374 263.24 844.086 265.48C 847.862 267.656 850.678 270.664 852.534 274.504C 854.454 278.344 855.414 282.76 855.414 287.752L 855.414 290.056C 855.414 290.696 855.19 291.272 854.742 291.784C 854.294 292.232 853.718 292.456 853.014 292.456L 822.294 292.456L 822.294 293.128C 822.422 296.136 823.158 298.568 824.502 300.424C 825.846 302.28 827.798 303.208 830.358 303.208C 831.958 303.208 833.27 302.888 834.294 302.248C 835.318 301.544 836.246 300.712 837.078 299.752C 837.654 299.048 838.102 298.632 838.422 298.504C 838.806 298.312 839.382 298.216 840.15 298.216L 852.054 298.216C 852.63 298.216 853.11 298.408 853.494 298.792C 853.942 299.112 854.166 299.56 854.166 300.136C 854.166 301.8 853.206 303.72 851.286 305.896C 849.43 308.072 846.71 309.96 843.126 311.56C 839.542 313.16 835.318 313.96 830.454 313.96ZM 838.518 282.952L 838.518 282.76C 838.518 279.624 837.782 277.16 836.31 275.368C 834.902 273.512 832.918 272.584 830.358 272.584C 827.862 272.584 825.878 273.512 824.406 275.368C 822.998 277.16 822.294 279.624 822.294 282.76L 822.294 282.952L 838.518 282.952Z" transform="translate(289 172)" fill="white"/>
</g>
</g>
</g>
<defs>

<linearGradient id="paint0_linear" x2="1" gradientUnits="userSpaceOnUse" gradientTransform="matrix(0 526 -940 0 940 0)">
<stop stop-color="white"/>
<stop offset="0.0001" stop-color="#F2994A" stop-opacity="0.1"/>
<stop offset="1" stop-color="#F2994A"/>
</linearGradient>

<clipPath id="clip0">
<rect width="1440" height="1024" fill="white"/>
</clipPath>

</defs>
</svg>

